<svg xmlns="http://www.w3.org/2000/svg" version="1.1" xmlns:xlink="http://www.w3.org/1999/xlink" xmlns:svgjs="http://svgjs.dev/svgjs" width="1000" height="1000" viewBox="0 0 1000 1000"><rect width="1000" height="1000" fill="#ffffff"></rect><g transform="matrix(0.7,0,0,0.7,150.13546792086822,237.71255060728743)"><svg viewBox="0 0 329 247" data-background-color="#046380" preserveAspectRatio="xMidYMid meet" height="750" width="1000" xmlns="http://www.w3.org/2000/svg" xmlns:xlink="http://www.w3.org/1999/xlink"><g id="tight-bounds" transform="matrix(1,0,0,1,-0.06366992280806016,-0.09999999999999432)"><svg viewBox="0 0 329.1273398456161 247.2" height="247.2" width="329.1273398456161"><g><svg viewBox="0 0 395.52 297.06600504796165" height="247.2" width="329.1273398456161"><g transform="matrix(1,0,0,1,0,217.29363406334977)"><svg viewBox="0 0 395.52 79.7723709846119" height="79.7723709846119" width="395.52"><g id="textblocktransform"><svg viewBox="0 0 395.52 79.7723709846119" height="79.7723709846119" width="395.52" id="textblock"><g><svg viewBox="0 0 395.52 43.02540509915014" height="43.02540509915014" width="395.52"><g transform="matrix(1,0,0,1,0,0)"><svg width="395.52" viewBox="1.2999999523162842 -36.95000076293945 441.21002197265625 48" height="43.02540509915014" data-palette-color="#ffffff"><path d="M14-36.95L14-36.95Q16.55-36.95 18.98-36.25 21.4-35.55 23.55-34.2L23.55-34.2 21.05-30.65Q19.5-31.8 17.68-32.48 15.85-33.15 13.95-33.15L13.95-33.15Q11.45-33.15 9.65-31.9 7.85-30.65 7.85-27.9L7.85-27.9Q7.85-26.3 8.68-25.2 9.5-24.1 10.9-23.28 12.3-22.45 14-21.65L14-21.65Q15.75-20.85 17.57-19.9 19.4-18.95 20.95-17.68 22.5-16.4 23.43-14.58 24.35-12.75 24.35-10.1L24.35-10.1Q24.35-6.45 22.6-4.08 20.85-1.7 17.98-0.55 15.1 0.6 11.8 0.6L11.8 0.6Q9 0.6 6.38-0.13 3.75-0.85 1.3-2.15L1.3-2.15 3.2-6.55Q4.9-5.1 7.23-4.17 9.55-3.25 11.75-3.25L11.75-3.25Q13.4-3.25 15.05-3.88 16.7-4.5 17.8-5.85 18.9-7.2 18.9-9.3L18.9-9.3Q18.9-11.4 17.85-12.78 16.8-14.15 15.13-15.13 13.45-16.1 11.55-16.95L11.55-16.95Q9.9-17.75 8.28-18.6 6.65-19.45 5.3-20.6 3.95-21.75 3.15-23.38 2.35-25 2.35-27.25L2.35-27.25Q2.35-30.5 4.05-32.65 5.75-34.8 8.43-35.88 11.1-36.95 14-36.95ZM83 5.95L83.85 8.6Q82.35 9.2 81.05 9.63 79.75 10.05 78.47 10.38 77.2 10.7 75.75 10.88 74.3 11.05 72.55 11.05L72.55 11.05Q70.3 11.05 67.62 10.38 64.95 9.7 62.15 8.63 59.35 7.55 56.67 6.33 54 5.1 51.65 3.98 49.3 2.85 47.6 2.1L47.6 2.1Q46.1 1.4 44.42 1.03 42.75 0.65 41.1 0.3L41.1 0.3Q36.35-0.8 33.42-3.48 30.5-6.15 29.15-9.95 27.8-13.75 27.8-18.15L27.8-18.15Q27.8-21.9 28.8-25.28 29.8-28.65 31.82-31.3 33.85-33.95 36.97-35.45 40.1-36.95 44.25-36.95L44.25-36.95Q48.4-36.95 51.5-35.43 54.6-33.9 56.62-31.25 58.65-28.6 59.65-25.23 60.65-21.85 60.65-18.15L60.65-18.15Q60.65-14.65 59.65-11.28 58.65-7.9 56.52-5.15 54.4-2.4 50.85-0.85L50.85-0.85Q51.05-0.8 51.25-0.7 51.45-0.6 51.6-0.5L51.6-0.5Q52.85 0.1 54.82 1.1 56.8 2.1 59.3 3.2 61.8 4.3 64.45 5.28 67.1 6.25 69.65 6.88 72.2 7.5 74.3 7.5L74.3 7.5Q75.35 7.5 76.9 7.28 78.45 7.05 80.1 6.68 81.75 6.3 83 5.95L83 5.95ZM44.25-3.15L44.25-3.15Q47.3-3.15 49.4-4.45 51.5-5.75 52.8-7.93 54.1-10.1 54.67-12.78 55.25-15.45 55.25-18.15L55.25-18.15Q55.25-20.9 54.67-23.55 54.1-26.2 52.8-28.4 51.5-30.6 49.4-31.9 47.3-33.2 44.25-33.2L44.25-33.2Q41.2-33.2 39.1-31.88 37-30.55 35.7-28.35 34.4-26.15 33.85-23.5 33.3-20.85 33.3-18.1L33.3-18.1Q33.3-15.45 33.85-12.8 34.4-10.15 35.7-7.98 37-5.8 39.1-4.48 41.2-3.15 44.25-3.15ZM66-36.45L72-36.45 72-12.2Q72-8.1 74.12-5.63 76.25-3.15 80.55-3.15L80.55-3.15Q85-3.15 87.32-5.8 89.65-8.45 89.65-12.75L89.65-12.75 89.65-36.45 93.9-36.45 93.9-13.1Q93.9-8.7 92.25-5.65 90.59-2.6 87.55-1 84.5 0.6 80.25 0.6L80.25 0.6Q73.84 0.6 70.3-2.75 66.75-6.1 66.75-12.55L66.75-12.55 66.75-33.2 66-36.45ZM110.24-36.45L114.99-36.45 127.64 0 122.04 0 117.94-12.1 106.19-12.1 102.04 0 97.54 0 110.24-36.45ZM116.69-15.8L112.09-29.8 107.44-15.8 116.69-15.8ZM161.29-18.15L161.29-18.15Q161.29-12.85 159.44-8.78 157.59-4.7 153.87-2.35 150.14 0 144.54 0L144.54 0 132.44 0 132.44-33.2Q132.44-33.25 132.27-33.98 132.09-34.7 131.94-35.5 131.79-36.3 131.74-36.45L131.74-36.45 142.04-36.45Q147.99-36.45 152.29-34.52 156.59-32.6 158.94-28.55 161.29-24.5 161.29-18.15ZM155.89-18.15L155.89-18.15Q155.89-21.8 154.99-24.53 154.09-27.25 152.31-29.08 150.54-30.9 147.89-31.8 145.24-32.7 141.64-32.7L141.64-32.7 137.54-32.7 137.54-3.75 143.99-3.75Q148.39-3.75 150.99-5.73 153.59-7.7 154.74-10.98 155.89-14.25 155.89-18.15ZM193.14 0.55L193.14 0.55Q189.09 0.55 186.01-0.95 182.94-2.45 180.89-5.05 178.84-7.65 177.81-11.03 176.79-14.4 176.79-18.2L176.79-18.2Q176.79-22 177.81-25.38 178.84-28.75 180.86-31.38 182.89-34 185.99-35.48 189.09-36.95 193.19-36.95L193.19-36.95Q197.34-36.95 200.41-35.48 203.49-34 205.54-31.4 207.59-28.8 208.61-25.4 209.64-22 209.64-18.15L209.64-18.15Q209.64-14.35 208.59-10.98 207.54-7.6 205.49-5 203.44-2.4 200.36-0.93 197.29 0.55 193.14 0.55ZM193.24-3.15L193.24-3.15Q196.39-3.15 198.49-4.48 200.59-5.8 201.86-8 203.14-10.2 203.69-12.85 204.24-15.5 204.24-18.15L204.24-18.15Q204.24-20.8 203.69-23.45 203.14-26.1 201.86-28.3 200.59-30.5 198.46-31.85 196.34-33.2 193.24-33.2L193.24-33.2Q190.14-33.2 188.01-31.88 185.89-30.55 184.64-28.35 183.39-26.15 182.81-23.5 182.24-20.85 182.24-18.2L182.24-18.2Q182.24-15.55 182.81-12.9 183.39-10.25 184.64-8.03 185.89-5.8 188.01-4.48 190.14-3.15 193.24-3.15ZM215.68-33.2L214.98-36.45 226.18-36.45Q229.63-36.45 232.43-35.55 235.23-34.65 236.86-32.48 238.48-30.3 238.48-26.4L238.48-26.4Q238.48-24.4 237.51-22.53 236.53-20.65 234.91-19.28 233.28-17.9 231.38-17.3L231.38-17.3 241.78 0 235.88 0 226.33-16.35 220.78-16.35 220.78 0 215.68 0 215.68-33.2ZM226.03-32.65L220.78-32.65 220.78-20.05 224.63-20.05Q227.03-20.05 228.96-20.6 230.88-21.15 232.01-22.6 233.13-24.05 233.13-26.65L233.13-26.65Q233.13-28.7 232.13-30.03 231.13-31.35 229.53-32 227.93-32.65 226.03-32.65L226.03-32.65ZM259.63-36.95L259.63-36.95Q261.58-36.95 263.86-36.52 266.13-36.1 268.25-35.2 270.38-34.3 271.78-32.85L271.78-32.85 268.93-29.55Q267.38-30.8 266.03-31.58 264.68-32.35 263.23-32.75 261.78-33.15 259.63-33.15L259.63-33.15Q256.38-33.15 254.16-31.9 251.93-30.65 250.53-28.55 249.13-26.45 248.48-23.78 247.83-21.1 247.83-18.25L247.83-18.25Q247.83-15.6 248.43-12.95 249.03-10.3 250.36-8.13 251.68-5.95 253.81-4.65 255.93-3.35 259.08-3.35L259.08-3.35Q261.63-3.35 263.53-4.48 265.43-5.6 266.48-7.55 267.53-9.5 267.53-12.05L267.53-12.05 267.53-15.3 258.88-15.3 259.48-18.9 272.73-18.9 272.68-8.7Q272.68-6.55 272.83-4.35 272.98-2.15 273.13 0L273.13 0 270.38 0 268.78-3.8Q266.53-1.45 264-0.43 261.48 0.6 258.18 0.6L258.18 0.6Q254.23 0.6 251.28-0.88 248.33-2.35 246.36-4.93 244.38-7.5 243.43-10.8 242.48-14.1 242.48-17.8L242.48-17.8Q242.48-23.25 244.41-27.58 246.33-31.9 250.16-34.43 253.98-36.95 259.63-36.95ZM289.18-36.45L293.93-36.45 306.58 0 300.98 0 296.88-12.1 285.13-12.1 280.98 0 276.48 0 289.18-36.45ZM295.63-15.8L291.03-29.8 286.38-15.8 295.63-15.8ZM310.73-36.45L317.33-36.45 332.93-12.5Q333.38-11.8 333.88-11.03 334.38-10.25 334.88-9.5L334.88-9.5Q334.83-10.35 334.75-11.25 334.68-12.15 334.68-13L334.68-13 334.68-36.45 338.88-36.45 338.88 0.25 335.43 0.25 317.28-27.45Q316.88-28.15 316.38-28.9 315.88-29.65 315.38-30.35L315.38-30.35Q315.48-29.55 315.53-28.7 315.58-27.85 315.58-27.05L315.58-27.05 315.58 0 311.43 0 311.43-33.2 310.73-36.45ZM346.42-36.45L346.42-36.45 352.22-36.45 352.22 0 347.12 0 347.12-33.2Q347.12-33.25 346.95-33.98 346.77-34.7 346.62-35.5 346.47-36.3 346.42-36.45ZM359.02-32.7L359.02-36.45 382.72-36.45 382.72-33.05 364.07-3.75 383.42-3.75 383.02 0 357.87 0 357.87-3.5 376.52-32.7 359.02-32.7ZM389.02-33.2L388.32-36.45 410.42-36.45 410.42-32.7 394.12-32.7 394.12-20.6 406.72-20.6 406.72-16.85 394.12-16.85 394.12-3.75 410.42-3.75 410.42 0 389.02 0 389.02-33.2ZM416.42-33.2L415.72-36.45 426.92-36.45Q430.37-36.45 433.17-35.55 435.97-34.65 437.59-32.48 439.22-30.3 439.22-26.4L439.22-26.4Q439.22-24.4 438.24-22.53 437.26-20.65 435.64-19.28 434.01-17.9 432.12-17.3L432.12-17.3 442.51 0 436.62 0 427.06-16.35 421.51-16.35 421.51 0 416.42 0 416.42-33.2ZM426.76-32.65L421.51-32.65 421.51-20.05 425.37-20.05Q427.76-20.05 429.69-20.6 431.62-21.15 432.74-22.6 433.87-24.05 433.87-26.65L433.87-26.65Q433.87-28.7 432.87-30.03 431.87-31.35 430.26-32 428.67-32.65 426.76-32.65L426.76-32.65Z" opacity="1" transform="matrix(1,0,0,1,0,0)" fill="#000000" class="undefined-text-0" data-fill-palette-color="primary" id="text-0"></path></svg></g></svg></g><g transform="matrix(1,0,0,1,112.49773386314553,53.18267063333711)"><svg viewBox="0 0 170.52453227370893 26.589700351274786" height="26.589700351274786" width="170.52453227370893"><g transform="matrix(1,0,0,1,0,0)"><svg width="170.52453227370893" viewBox="4.300000190734863 -37.20000076293945 306.52001953125 47.80000305175781" height="26.589700351274786" data-palette-color="#ffffff"><path d="M26.65 0L4.3 0 4.3-34.9 26.65-34.9 26.65-29.9 9.95-29.9 9.95-20.2 25.1-20.2 25.1-15.2 9.95-15.2 9.95-5 26.65-5 26.65 0ZM55.65 0L52.6 0Q50.45 0 49.3-1.23 48.15-2.45 47.9-4.35L47.9-4.35 47.65-4.35Q46.9-1.9 44.9-0.65 42.9 0.6 40.05 0.6L40.05 0.6Q36 0.6 33.82-1.5 31.65-3.6 31.65-7.15L31.65-7.15Q31.65-11.05 34.47-13 37.3-14.95 42.75-14.95L42.75-14.95 47.45-14.95 47.45-17.15Q47.45-19.55 46.15-20.85 44.85-22.15 42.1-22.15L42.1-22.15Q39.8-22.15 38.35-21.15 36.9-20.15 35.9-18.6L35.9-18.6 32.65-21.55Q33.95-23.75 36.3-25.18 38.65-26.6 42.45-26.6L42.45-26.6Q47.5-26.6 50.2-24.25 52.9-21.9 52.9-17.5L52.9-17.5 52.9-4.45 55.65-4.45 55.65 0ZM41.6-3.55L41.6-3.55Q44.15-3.55 45.8-4.67 47.45-5.8 47.45-7.7L47.45-7.7 47.45-11.45 42.85-11.45Q37.2-11.45 37.2-7.95L37.2-7.95 37.2-7.05Q37.2-5.3 38.37-4.42 39.55-3.55 41.6-3.55ZM69.25 0.6L69.25 0.6Q65.55 0.6 63.05-0.7 60.55-2 58.7-4.3L58.7-4.3 62.2-7.5Q63.65-5.75 65.42-4.78 67.2-3.8 69.55-3.8L69.55-3.8Q71.95-3.8 73.12-4.73 74.3-5.65 74.3-7.3L74.3-7.3Q74.3-8.55 73.47-9.43 72.65-10.3 70.59-10.55L70.59-10.55 68.2-10.85Q64.2-11.35 61.92-13.18 59.65-15 59.65-18.6L59.65-18.6Q59.65-20.5 60.35-21.98 61.05-23.45 62.32-24.48 63.6-25.5 65.37-26.05 67.15-26.6 69.3-26.6L69.3-26.6Q72.8-26.6 75.02-25.5 77.25-24.4 79-22.45L79-22.45 75.65-19.25Q74.65-20.45 73.02-21.33 71.4-22.2 69.3-22.2L69.3-22.2Q67.05-22.2 65.97-21.3 64.9-20.4 64.9-18.95L64.9-18.95Q64.9-17.45 65.84-16.7 66.8-15.95 68.9-15.6L68.9-15.6 71.3-15.3Q75.59-14.65 77.57-12.78 79.55-10.9 79.55-7.75L79.55-7.75Q79.55-5.85 78.82-4.33 78.09-2.8 76.75-1.7 75.4-0.6 73.5 0 71.59 0.6 69.25 0.6ZM95.74-10.7L100.94-26 106.19-26 95.24 5.15Q94.79 6.45 94.22 7.38 93.64 8.3 92.87 8.88 92.09 9.45 90.99 9.73 89.89 10 88.39 10L88.39 10 85.24 10 85.24 5.55 89.64 5.55 91.14 1.15 81.69-26 87.14-26 92.34-10.7 93.84-5.05 94.09-5.05 95.74-10.7ZM132.69 0.6L132.69 0.6Q129.99 0.6 127.76-0.35 125.54-1.3 123.99-3.08 122.44-4.85 121.59-7.38 120.74-9.9 120.74-13L120.74-13Q120.74-16.1 121.59-18.63 122.44-21.15 123.99-22.93 125.54-24.7 127.76-25.65 129.99-26.6 132.69-26.6L132.69-26.6Q135.39-26.6 137.61-25.65 139.84-24.7 141.39-22.93 142.94-21.15 143.79-18.63 144.64-16.1 144.64-13L144.64-13Q144.64-9.9 143.79-7.38 142.94-4.85 141.39-3.08 139.84-1.3 137.61-0.35 135.39 0.6 132.69 0.6ZM132.69-3.9L132.69-3.9Q135.49-3.9 137.19-5.63 138.89-7.35 138.89-10.8L138.89-10.8 138.89-15.2Q138.89-18.65 137.19-20.38 135.49-22.1 132.69-22.1L132.69-22.1Q129.89-22.1 128.19-20.38 126.49-18.65 126.49-15.2L126.49-15.2 126.49-10.8Q126.49-7.35 128.19-5.63 129.89-3.9 132.69-3.9ZM156.14 0L150.69 0 150.69-26 156.14-26 156.14-21 156.39-21Q156.94-23 158.69-24.5 160.44-26 163.54-26L163.54-26 164.99-26 164.99-20.75 162.84-20.75Q159.59-20.75 157.86-19.7 156.14-18.65 156.14-16.6L156.14-16.6 156.14 0ZM191.68 2.45L191.68 2.45Q191.68 6.5 188.58 8.55 185.48 10.6 178.48 10.6L178.48 10.6Q175.28 10.6 173.06 10.18 170.83 9.75 169.41 8.95 167.98 8.15 167.33 7 166.68 5.85 166.68 4.35L166.68 4.35Q166.68 2.2 167.86 1 169.03-0.2 171.13-0.65L171.13-0.65 171.13-1.2Q168.18-2.15 168.18-5.2L168.18-5.2Q168.18-7.2 169.53-8.28 170.88-9.35 172.78-9.8L172.78-9.8 172.78-10Q170.48-11.1 169.26-13.08 168.03-15.05 168.03-17.7L168.03-17.7Q168.03-21.7 170.71-24.15 173.38-26.6 178.38-26.6L178.38-26.6Q181.13-26.6 183.08-25.8L183.08-25.8 183.08-26.5Q183.08-28.25 183.91-29.23 184.73-30.2 186.48-30.2L186.48-30.2 190.48-30.2 190.48-25.8 185.18-25.8 185.18-24.75Q186.93-23.6 187.88-21.78 188.83-19.95 188.83-17.7L188.83-17.7Q188.83-13.75 186.13-11.33 183.43-8.9 178.43-8.9L178.43-8.9Q176.53-8.9 175.03-9.3L175.03-9.3Q174.03-8.95 173.28-8.33 172.53-7.7 172.53-6.7L172.53-6.7Q172.53-5.65 173.48-5.2 174.43-4.75 176.18-4.75L176.18-4.75 182.58-4.75Q187.38-4.75 189.53-2.83 191.68-0.9 191.68 2.45ZM186.58 3.05L186.58 3.05Q186.58 1.7 185.56 0.9 184.53 0.1 181.83 0.1L181.83 0.1 173.03 0.1Q171.23 1.15 171.23 3.1L171.23 3.1Q171.23 4.7 172.51 5.68 173.78 6.65 176.83 6.65L176.83 6.65 180.23 6.65Q186.58 6.65 186.58 3.05ZM178.43-12.85L178.43-12.85Q180.83-12.85 182.16-13.93 183.48-15 183.48-17.25L183.48-17.25 183.48-18.25Q183.48-20.5 182.16-21.58 180.83-22.65 178.43-22.65L178.43-22.65Q176.03-22.65 174.71-21.58 173.38-20.5 173.38-18.25L173.38-18.25 173.38-17.25Q173.38-15 174.71-13.93 176.03-12.85 178.43-12.85ZM217.68 0L214.63 0Q212.48 0 211.33-1.23 210.18-2.45 209.93-4.35L209.93-4.35 209.68-4.35Q208.93-1.9 206.93-0.65 204.93 0.6 202.08 0.6L202.08 0.6Q198.03 0.6 195.86-1.5 193.68-3.6 193.68-7.15L193.68-7.15Q193.68-11.05 196.51-13 199.33-14.95 204.78-14.95L204.78-14.95 209.48-14.95 209.48-17.15Q209.48-19.55 208.18-20.85 206.88-22.15 204.13-22.15L204.13-22.15Q201.83-22.15 200.38-21.15 198.93-20.15 197.93-18.6L197.93-18.6 194.68-21.55Q195.98-23.75 198.33-25.18 200.68-26.6 204.48-26.6L204.48-26.6Q209.53-26.6 212.23-24.25 214.93-21.9 214.93-17.5L214.93-17.5 214.93-4.45 217.68-4.45 217.68 0ZM203.63-3.55L203.63-3.55Q206.18-3.55 207.83-4.67 209.48-5.8 209.48-7.7L209.48-7.7 209.48-11.45 204.88-11.45Q199.23-11.45 199.23-7.95L199.23-7.95 199.23-7.05Q199.23-5.3 200.41-4.42 201.58-3.55 203.63-3.55ZM228.48 0L223.03 0 223.03-26 228.48-26 228.48-21.7 228.73-21.7Q229.58-23.8 231.3-25.2 233.03-26.6 236.03-26.6L236.03-26.6Q240.03-26.6 242.25-23.98 244.48-21.35 244.48-16.5L244.48-16.5 244.48 0 239.03 0 239.03-15.8Q239.03-21.9 234.13-21.9L234.13-21.9Q233.08-21.9 232.05-21.63 231.03-21.35 230.23-20.8 229.43-20.25 228.95-19.4 228.48-18.55 228.48-17.4L228.48-17.4 228.48 0ZM254.78-30.65L254.78-30.65Q253.08-30.65 252.3-31.45 251.53-32.25 251.53-33.5L251.53-33.5 251.53-34.35Q251.53-35.6 252.3-36.4 253.08-37.2 254.78-37.2L254.78-37.2Q256.48-37.2 257.23-36.4 257.98-35.6 257.98-34.35L257.98-34.35 257.98-33.5Q257.98-32.25 257.23-31.45 256.48-30.65 254.78-30.65ZM252.03 0L252.03-26 257.48-26 257.48 0 252.03 0ZM283.92 0L263.17 0 263.17-4.4 277.12-21.55 263.62-21.55 263.62-26 283.57-26 283.57-21.8 269.42-4.45 283.92-4.45 283.92 0ZM299.27 0.6L299.27 0.6Q296.47 0.6 294.27-0.35 292.07-1.3 290.52-3.08 288.97-4.85 288.15-7.38 287.32-9.9 287.32-13L287.32-13Q287.32-16.1 288.15-18.63 288.97-21.15 290.52-22.93 292.07-24.7 294.27-25.65 296.47-26.6 299.27-26.6L299.27-26.6Q302.12-26.6 304.3-25.6 306.47-24.6 307.92-22.83 309.37-21.05 310.1-18.7 310.82-16.35 310.82-13.65L310.82-13.65 310.82-11.6 292.97-11.6 292.97-10.75Q292.97-7.75 294.75-5.83 296.52-3.9 299.82-3.9L299.82-3.9Q302.22-3.9 303.87-4.95 305.52-6 306.67-7.8L306.67-7.8 309.87-4.65Q308.42-2.25 305.67-0.83 302.92 0.6 299.27 0.6ZM299.27-22.35L299.27-22.35Q297.87-22.35 296.7-21.85 295.52-21.35 294.7-20.45 293.87-19.55 293.42-18.3 292.97-17.05 292.97-15.55L292.97-15.55 292.97-15.2 305.07-15.2 305.07-15.7Q305.07-18.7 303.52-20.53 301.97-22.35 299.27-22.35Z" opacity="1" transform="matrix(1,0,0,1,0,0)" fill="#000000" class="undefined-text-1" data-fill-palette-color="secondary" id="text-1"></path></svg></g></svg></g></svg></g></svg></g><g transform="matrix(1,0,0,1,99.27044850251207,0)"><svg viewBox="0 0 196.97910299497585 196.97910299497585" height="196.97910299497585" width="196.97910299497585"><g><svg></svg></g><g id="icon-0"><svg viewBox="0 0 196.97910299497585 196.97910299497585" height="196.97910299497585" width="196.97910299497585"><g><path d="M0 98.49c0-54.394 44.095-98.49 98.49-98.49 54.394 0 98.49 44.095 98.489 98.49 0 54.394-44.095 98.49-98.489 98.489-54.394 0-98.49-44.095-98.49-98.489zM98.49 193.099c52.251 0 94.609-42.358 94.609-94.609 0-52.251-42.358-94.609-94.609-94.61-52.251 0-94.609 42.358-94.61 94.61 0 52.251 42.358 94.609 94.61 94.609z" data-fill-palette-color="accent" fill="#000000" stroke="transparent"></path></g><g transform="matrix(1,0,0,1,38.97430221624963,68.03180419223713)"><svg viewBox="0 0 119.03049856247658 60.915494610501575" height="60.915494610501575" width="119.03049856247658"><g><svg xmlns="http://www.w3.org/2000/svg" xmlns:xlink="http://www.w3.org/1999/xlink" version="1.1" x="0" y="0" viewBox="2.28999662399292 25.5830020904541 95.4209976196289 48.8330078125" enable-background="new 0 0 100 100" xml:space="preserve" height="60.915494610501575" width="119.03049856247658" class="icon-s-0" data-fill-palette-color="accent" id="s-0"><path d="M50 51.41c-5.439 0-9.942-4.284-10.278-9.655 1.721 0.379 3.779 0.645 5.964 0.794 0.035 0.003 0.07 0.006 0.105 0.008 0.088 0.006 0.177 0.011 0.266 0.017 1.046 0.065 2.129 0.106 3.237 0.118 0.235 0.002 0.471 0.004 0.706 0.004 0.235 0 0.471-0.002 0.706-0.004 1.106-0.012 2.188-0.053 3.233-0.118 0.09-0.006 0.182-0.011 0.271-0.017 0.033-0.002 0.068-0.005 0.102-0.008 2.187-0.149 4.244-0.415 5.967-0.794C59.942 47.126 55.439 51.41 50 51.41z" fill="#000000" data-fill-palette-color="accent"></path><path d="M38.167 37.357l0.246-0.079 0.035-0.256c0.777-5.752 5.744-10.09 11.554-10.09 5.81 0 10.777 4.338 11.554 10.09l0.034 0.256 0.246 0.079c1.803 0.578 2.445 1.187 2.445 1.563 0 0.614-1.347 1.349-3.788 1.932-0.051 0.013-0.104 0.024-0.154 0.036-0.105 0.024-0.209 0.049-0.318 0.072-2.506 0.544-5.809 0.869-9.262 0.911-0.25 0.003-0.501 0.004-0.757 0.004-0.255 0-0.507-0.001-0.756-0.004-3.233-0.039-6.335-0.326-8.775-0.81-0.002 0-0.003-0.001-0.005-0.001-0.163-0.032-0.321-0.065-0.477-0.1-0.118-0.026-0.233-0.053-0.347-0.079-0.041-0.009-0.083-0.019-0.123-0.028-2.447-0.583-3.795-1.319-3.795-1.934C35.721 38.544 36.363 37.936 38.167 37.357z" fill="#000000" data-fill-palette-color="accent"></path><path d="M28.394 37.054c-0.312 4.05-3.726 7.263-7.843 7.263s-7.532-3.213-7.844-7.262c1.914 0.411 4.323 0.654 6.919 0.701 0.315 0.007 0.624 0.01 0.924 0.01l0 0 0 0c0 0 0 0 0 0 0.3 0 0.608-0.003 0.924-0.01C24.071 37.709 26.481 37.466 28.394 37.054z" fill="#000000" data-fill-palette-color="accent"></path><path d="M11.432 33.636l0.246-0.079 0.035-0.256c0.594-4.399 4.394-7.718 8.838-7.718 4.444 0 8.243 3.318 8.838 7.718l0.035 0.256 0.246 0.079c1.348 0.433 1.826 0.873 1.826 1.12 0 0.412-0.908 0.909-2.54 1.326l-0.226 0.056c-0.129 0.031-0.263 0.063-0.398 0.092-0.005 0.002-0.01 0.002-0.015 0.004-0.125 0.027-0.253 0.054-0.383 0.08-0.018 0.003-0.035 0.007-0.053 0.01-1.877 0.37-4.262 0.591-6.748 0.621-0.186 0.002-0.373 0.003-0.562 0.003-0.006 0-0.013 0-0.02 0-0.196 0-0.39-0.001-0.582-0.003-2.301-0.028-4.515-0.219-6.321-0.541-0.003 0-0.005 0-0.008-0.001-0.141-0.025-0.279-0.051-0.415-0.078-0.021-0.004-0.041-0.008-0.061-0.012-0.127-0.025-0.252-0.052-0.375-0.078-0.007-0.002-0.015-0.004-0.021-0.005-0.135-0.03-0.267-0.061-0.396-0.092l-0.214-0.052c-1.639-0.418-2.552-0.917-2.552-1.33C9.606 34.509 10.084 34.068 11.432 33.636z" fill="#000000" data-fill-palette-color="accent"></path><path d="M87.295 37.054c-0.313 4.05-3.727 7.263-7.844 7.263s-7.531-3.213-7.844-7.262c1.914 0.411 4.324 0.654 6.92 0.701 0.315 0.007 0.624 0.01 0.924 0.01l0 0 0 0 0 0c0.3 0 0.609-0.003 0.925-0.01C82.973 37.709 85.382 37.466 87.295 37.054z" fill="#000000" data-fill-palette-color="accent"></path><path d="M70.333 33.636l0.245-0.079 0.035-0.256c0.594-4.399 4.395-7.718 8.838-7.718 4.444 0 8.244 3.318 8.838 7.718l0.035 0.256 0.246 0.079c1.347 0.433 1.824 0.873 1.824 1.12 0 0.412-0.907 0.909-2.539 1.326l-0.226 0.056c-0.132 0.032-0.267 0.063-0.403 0.094-0.002 0-0.004 0-0.004 0-0.13 0.029-0.262 0.057-0.396 0.083-0.014 0.003-0.028 0.006-0.043 0.009-1.877 0.37-4.263 0.591-6.75 0.621-0.186 0.002-0.373 0.003-0.563 0.003-0.006 0-0.013 0-0.02 0-0.196 0-0.39-0.001-0.582-0.003-2.299-0.028-4.512-0.219-6.317-0.54-0.008-0.001-0.016-0.003-0.023-0.004-0.136-0.024-0.269-0.05-0.398-0.075-0.024-0.005-0.049-0.01-0.073-0.015-0.123-0.024-0.244-0.05-0.361-0.075-0.012-0.003-0.021-0.005-0.033-0.008-0.133-0.029-0.263-0.059-0.389-0.09l-0.211-0.052c-1.642-0.418-2.555-0.917-2.555-1.33C68.508 34.509 68.985 34.068 70.333 33.636z" fill="#000000" data-fill-palette-color="accent"></path><g fill="#ffffff" data-fill-palette-color="accent"><path d="M35.288 49.833c-1.846-3.211-4.74-4.86-9.659-5.497-1.485 1.073-3.238 1.641-5.079 1.641-1.841 0-3.593-0.567-5.079-1.641-4.919 0.637-7.813 2.286-9.659 5.497-1.772 3.08-3.169 8.159-3.522 9.507 1.439 0.588 7.833 2.933 18.26 2.933 2.619 0 5.188-0.147 7.642-0.44 0.513-1.287 1.08-2.552 1.687-3.667 0.081-0.148 0.161-0.292 0.241-0.432 0.088-0.153 0.179-0.304 0.271-0.452 0.031-0.05 0.063-0.098 0.094-0.147 0.062-0.098 0.124-0.194 0.187-0.29 0.037-0.056 0.075-0.11 0.113-0.166 0.06-0.088 0.12-0.175 0.182-0.26 0.039-0.055 0.079-0.109 0.118-0.163 0.064-0.087 0.129-0.173 0.195-0.258 0.037-0.048 0.073-0.096 0.11-0.143 0.082-0.104 0.165-0.204 0.249-0.304 0.021-0.026 0.043-0.053 0.064-0.078 1.254-1.47 2.777-2.612 4.651-3.477C35.995 51.166 35.637 50.439 35.288 49.833zM31.083 53.253l-5.471 3.761-5.471-3.761v-3.957l5.471 3.761 5.471-3.761V53.253z" fill="#000000" data-fill-palette-color="accent"></path><polygon points="20.959,50.852 20.959,52.822 25.612,56.021 30.264,52.822 30.264,50.852 25.612,54.05  " fill="#000000" data-fill-palette-color="accent"></polygon></g><g fill="#ffffff" data-fill-palette-color="accent"><polygon points="50.41,59.292 50.41,62.133 56.549,66.354 62.688,62.133 62.688,59.292 56.549,63.513  " fill="#000000" data-fill-palette-color="accent"></polygon><path d="M71.045 62.134c-0.023-0.06-0.047-0.118-0.07-0.177-0.045-0.111-0.09-0.222-0.136-0.333-0.032-0.077-0.063-0.152-0.096-0.229-0.056-0.134-0.112-0.268-0.169-0.399-0.053-0.121-0.104-0.242-0.156-0.359-0.03-0.068-0.062-0.136-0.092-0.204-0.047-0.103-0.093-0.205-0.139-0.305-0.031-0.066-0.062-0.132-0.092-0.197-0.047-0.1-0.095-0.199-0.142-0.296-0.029-0.062-0.06-0.123-0.089-0.184-0.049-0.1-0.099-0.197-0.147-0.294-0.028-0.055-0.056-0.11-0.083-0.164-0.055-0.104-0.108-0.206-0.162-0.307-0.023-0.043-0.047-0.088-0.069-0.13-0.077-0.143-0.155-0.281-0.231-0.415-0.084-0.147-0.172-0.292-0.26-0.434-0.033-0.053-0.066-0.104-0.1-0.157-0.055-0.086-0.11-0.172-0.166-0.256-0.043-0.064-0.087-0.129-0.131-0.192-0.046-0.066-0.092-0.132-0.139-0.197-0.053-0.072-0.104-0.145-0.156-0.216-0.033-0.044-0.066-0.086-0.1-0.13-0.232-0.302-0.473-0.593-0.727-0.868-0.008-0.009-0.016-0.018-0.023-0.025-0.088-0.096-0.177-0.188-0.268-0.281-0.012-0.013-0.025-0.025-0.038-0.039-0.093-0.093-0.186-0.185-0.28-0.274-0.005-0.004-0.01-0.008-0.014-0.013-0.297-0.28-0.609-0.545-0.936-0.796-0.01-0.008-0.021-0.016-0.031-0.024-0.079-0.061-0.16-0.119-0.242-0.178-0.053-0.039-0.105-0.077-0.159-0.114-0.064-0.045-0.13-0.09-0.194-0.134-0.084-0.057-0.17-0.112-0.256-0.167-0.041-0.026-0.082-0.053-0.123-0.079-0.584-0.362-1.209-0.687-1.881-0.977l-0.338-0.146c-1.711-0.695-3.713-1.177-6.072-1.479-1.909 1.393-4.166 2.127-6.539 2.127-2.372 0-4.629-0.734-6.539-2.127-2.357 0.302-4.358 0.783-6.067 1.478l-0.342 0.147c-0.672 0.29-1.298 0.615-1.883 0.979-0.04 0.024-0.078 0.049-0.117 0.074-0.089 0.056-0.176 0.114-0.263 0.172-0.063 0.043-0.127 0.086-0.189 0.13-0.056 0.039-0.11 0.078-0.165 0.118-0.08 0.058-0.16 0.116-0.238 0.175-0.013 0.011-0.026 0.021-0.039 0.031-0.323 0.249-0.632 0.512-0.927 0.79-0.005 0.004-0.01 0.009-0.015 0.014-0.095 0.089-0.188 0.181-0.28 0.273-0.013 0.014-0.026 0.026-0.04 0.04-0.09 0.092-0.179 0.185-0.266 0.279-0.008 0.009-0.017 0.019-0.025 0.027-0.253 0.276-0.494 0.565-0.725 0.867-0.033 0.044-0.066 0.086-0.099 0.13-0.053 0.071-0.104 0.144-0.156 0.216-0.047 0.065-0.093 0.131-0.139 0.197-0.044 0.063-0.087 0.128-0.13 0.192-0.056 0.084-0.111 0.17-0.167 0.256-0.033 0.053-0.067 0.104-0.1 0.157-0.088 0.142-0.175 0.286-0.26 0.434-0.077 0.134-0.154 0.272-0.231 0.414-0.022 0.041-0.045 0.084-0.067 0.126-0.055 0.104-0.11 0.207-0.166 0.314-0.025 0.048-0.05 0.098-0.074 0.146-0.053 0.104-0.106 0.209-0.159 0.317-0.025 0.052-0.051 0.104-0.077 0.157-0.052 0.108-0.105 0.219-0.158 0.331-0.025 0.054-0.051 0.108-0.076 0.163-0.053 0.115-0.106 0.233-0.16 0.352-0.024 0.055-0.048 0.107-0.072 0.161-0.065 0.148-0.131 0.3-0.197 0.453-0.041 0.096-0.081 0.191-0.121 0.288-0.036 0.086-0.072 0.172-0.108 0.26-0.047 0.115-0.094 0.231-0.141 0.348-0.019 0.046-0.038 0.093-0.056 0.14-1.416 3.555-2.438 7.334-2.731 8.462 1.668 0.693 10.01 3.843 23.767 3.843 13.757 0 22.099-3.149 23.767-3.843C73.476 69.448 72.456 65.683 71.045 62.134zM63.507 62.563l-6.958 4.784-6.958-4.784v-4.828l6.958 4.784 6.958-4.784V62.563z" fill="#000000" data-fill-palette-color="accent"></path></g><g fill="#ffffff" data-fill-palette-color="accent"><polygon points="79.861,50.852 79.861,52.822 84.513,56.021 89.165,52.822 89.165,50.852 84.513,54.05  " fill="#000000" data-fill-palette-color="accent"></polygon><path d="M94.189 49.833c-1.847-3.211-4.74-4.86-9.659-5.497-1.485 1.073-3.238 1.641-5.079 1.641s-3.594-0.567-5.078-1.641c-4.92 0.637-7.813 2.286-9.659 5.497-0.349 0.606-0.706 1.333-1.065 2.163 1.875 0.865 3.397 2.008 4.652 3.478 0.02 0.023 0.038 0.047 0.058 0.07 0.087 0.103 0.172 0.206 0.255 0.312 0.037 0.046 0.072 0.093 0.107 0.139 0.066 0.086 0.133 0.174 0.199 0.263 0.038 0.053 0.077 0.105 0.115 0.159 0.063 0.087 0.123 0.174 0.184 0.263 0.037 0.055 0.074 0.109 0.111 0.164 0.064 0.097 0.127 0.194 0.189 0.293 0.03 0.049 0.062 0.096 0.092 0.146 0.092 0.148 0.182 0.299 0.271 0.452 0.08 0.14 0.16 0.282 0.24 0.431 0.607 1.116 1.175 2.381 1.688 3.668 2.453 0.293 5.021 0.44 7.641 0.44 10.442 0 16.822-2.344 18.26-2.932C97.358 57.993 95.961 52.914 94.189 49.833zM89.983 53.253l-5.471 3.761-5.471-3.761v-3.957l5.471 3.761 5.471-3.761V53.253z" fill="#000000" data-fill-palette-color="accent"></path></g></svg></g></svg></g></svg></g></svg></g><g></g></svg></g><defs></defs></svg><rect width="329.1273398456161" height="247.2" fill="none" stroke="none" visibility="hidden"></rect></g></svg></g></svg>